<svg xmlns="http://www.w3.org/2000/svg" version="1.0" width="658.000000pt" height="138.000000pt" viewBox="0 0 658.000000 138.000000" preserveAspectRatio="xMidYMid meet">

<g transform="translate(0.000000,138.000000) scale(0.100000,-0.100000)" fill="#2563eb" stroke="none">
<path d="M291 1159 c-73 -22 -133 -74 -172 -149 -30 -57 -33 -156 -6 -216 18 -40 18 -41 -2 -75 -16 -26 -21 -51 -21 -106 0 -39 5 -84 10 -100 13 -32 301 -327 342 -349 22 -11 85 -14 320 -14 261 0 297 2 333 19 39 17 41 17 70 -1 43 -26 197 -26 241 1 37 23 64 76 64 127 l0 39 83 -82 c45 -45 94 -86 109 -92 14 -5 107 -10 206 -10 154 0 184 3 213 18 32 17 35 17 86 -1 46 -16 85 -18 305 -18 230 0 257 2 289 19 35 19 36 19 92 0 54 -18 87 -19 620 -17 l562 3 53 29 c44 25 69 48 119 115 2 3 34 -25 71 -62 37 -36 80 -71 95 -76 42 -16 173 -14 207 4 37 19 70 62 70 91 0 13 4 24 8 24 4 0 30 -23 57 -51 69 -70 90 -79 187 -79 97 0 138 19 165 75 l17 35 30 -29 c106 -100 289 -109 392 -18 l35 30 22 -20 c12 -12 42 -31 67 -44 44 -23 54 -24 310 -27 262 -3 266 -3 294 19 39 31 56 77 56 153 0 81 -9 104 -61 161 -23 25 -40 46 -38 48 2 1 17 9 33 17 44 23 66 73 66 153 0 37 -6 82 -14 100 -18 43 -334 354 -367 362 -14 3 -133 5 -265 3 -227 -3 -242 -4 -292 -27 l-53 -24 -25 24 c-24 22 -33 24 -136 24 l-110 0 -28 -32 -29 -32 -61 31 c-52 27 -75 33 -149 36 -66 3 -102 0 -139 -12 -46 -16 -53 -16 -81 -2 -40 21 -181 22 -225 1 -42 -20 -66 -63 -66 -119 0 -25 -3 -46 -7 -46 -4 0 -48 40 -98 90 l-92 90 -404 -3 -404 -2 -47 -27 c-94 -56 -144 -151 -136 -256 3 -32 9 -65 13 -74 6 -15 2 -18 -23 -18 -23 0 -32 6 -38 23 -8 25 -260 285 -318 328 -36 27 -45 29 -133 29 -105 0 -138 -12 -167 -60 -13 -23 -16 -57 -16 -174 0 -138 -1 -146 -19 -146 -11 0 -22 8 -25 18 -3 10 -84 95 -179 190 l-173 172 -294 0 c-323 -1 -334 -3 -370 -63 -12 -18 -20 -50 -20 -74 0 -24 -3 -43 -7 -43 -4 0 -47 39 -95 88 l-88 87 -103 -1 c-56 -1 -111 -2 -122 -2 -11 0 -141 1 -290 3 -160 2 -284 0 -304 -6z m2319 -282 c0 -140 3 -177 16 -195 15 -22 19 -22 240 -22 l224 0 0 -51 0 -51 -237 4 c-265 3 -282 7 -322 71 -19 32 -21 49 -21 226 l0 191 50 0 50 0 0 -173z m1160 123 l0 -50 -225 0 -225 0 -15 -24 c-20 -30 -7 -63 28 -71 12 -3 108 -6 214 -7 189 -3 192 -3 218 -28 77 -72 71 -180 -14 -232 -35 -22 -46 -23 -298 -26 l-263 -3 0 50 0 51 248 0 c180 0 251 3 260 12 19 19 15 66 -7 78 -12 6 -97 10 -206 10 -203 0 -232 6 -269 57 -29 40 -33 114 -8 155 44 70 70 76 345 77 l217 1 0 -50z m230 -10 c0 -122 32 -143 203 -138 116 3 119 4 143 31 20 23 24 39 24 93 l0 64 55 0 55 0 -1 -62 c-1 -96 -25 -145 -93 -192 -30 -20 -51 -26 -92 -26 l-54 0 0 -101 0 -100 -52 3 -53 3 -3 98 -3 97 -45 0 c-85 0 -159 59 -183 145 -12 44 -15 128 -4 138 3 4 28 7 55 7 l48 0 0 -60z m-3190 6 c0 -37 -4 -45 -22 -50 -13 -3 -115 -6 -228 -6 -216 0 -230 -3 -230 -45 0 -42 15 -45 212 -45 210 0 236 -6 282 -61 25 -30 28 -39 24 -91 -3 -44 -10 -64 -29 -84 -49 -52 -58 -54 -339 -54 l-260 0 0 50 0 50 255 0 255 0 11 24 c8 17 8 29 0 45 -11 20 -18 21 -204 21 -167 0 -197 3 -234 19 -79 36 -105 138 -54 209 40 57 62 62 324 62 l237 0 0 -44z m240 -51 l0 -95 150 0 c204 0 230 15 230 135 l0 55 51 0 51 0 -3 -83 c-4 -73 -8 -88 -32 -120 -16 -21 -23 -38 -17 -42 29 -18 50 -86 50 -160 l0 -75 -49 0 -49 0 -4 71 c-3 63 -7 74 -31 95 -27 23 -34 24 -188 24 l-159 0 0 -95 0 -95 -50 0 -50 0 0 240 0 240 50 0 50 0 0 -95z m680 -145 l0 -240 -50 0 -50 0 0 240 0 240 50 0 50 0 0 -240z m200 72 c0 -135 3 -172 16 -190 15 -22 19 -22 240 -22 l224 0 0 -51 0 -51 -237 4 c-265 3 -282 7 -322 71 -19 32 -21 49 -21 221 l0 186 50 0 50 0 0 -168z m2918 149 c75 -38 98 -86 104 -210 4 -91 5 -95 36 -122 37 -34 77 -38 92 -10 6 12 10 92 10 190 l0 171 51 0 50 0 -3 -199 -3 -200 -30 -31 c-58 -60 -156 -62 -233 -4 -51 40 -66 78 -72 186 -5 84 -9 100 -29 122 -28 30 -78 42 -118 29 l-28 -10 -5 -184 -5 -184 -52 -3 -53 -3 0 186 c0 198 4 218 52 261 32 29 43 32 126 33 53 1 83 -4 110 -18z m1022 -31 l0 -50 -206 0 c-128 0 -213 -4 -226 -11 -62 -33 -64 -213 -3 -253 20 -13 58 -16 230 -16 l205 0 0 -50 0 -50 -202 0 c-218 0 -260 7 -308 47 -53 44 -70 91 -70 192 0 103 9 133 53 180 54 57 70 60 310 61 l217 0 0 -50z" fill="#ff85cf"/>
</g>
</svg>